HIERARCHY
ROOT Hips
{
	OFFSET 0.00000 0.00000 0.00000
	CHANNELS 6 Xposition Yposition Zposition Zrotation Yrotation Xrotation 
	JOINT LHipJoint
	{
		OFFSET 0 0 0
		CHANNELS 3 Zrotation Yrotation Xrotation
		JOINT LeftUpLeg
		{
			OFFSET 1.58895 -1.83665 0.71753
			CHANNELS 3 Zrotation Yrotation Xrotation
			JOINT LeftLeg
			{
				OFFSET 2.50528 -6.88321 0.00000
				CHANNELS 3 Zrotation Yrotation Xrotation
				JOINT LeftFoot
				{
					OFFSET 2.63244 -7.23257 0.00000
					CHANNELS 3 Zrotation Yrotation Xrotation
					JOINT LeftToeBase
					{
						OFFSET 0.23691 -0.65090 1.72750
						CHANNELS 3 Zrotation Yrotation Xrotation
						End Site
						{
							OFFSET 0.00000 -0.00000 0.92561
						}
					}
				}
			}
		}
	}
	JOINT RHipJoint
	{
		OFFSET 0 0 0
		CHANNELS 3 Zrotation Yrotation Xrotation
		JOINT RightUpLeg
		{
			OFFSET -1.51435 -1.83665 0.71753
			CHANNELS 3 Zrotation Yrotation Xrotation
			JOINT RightLeg
			{
				OFFSET -2.54551 -6.99375 0.00000
				CHANNELS 3 Zrotation Yrotation Xrotation
				JOINT RightFoot
				{
					OFFSET -2.66027 -7.30903 0.00000
					CHANNELS 3 Zrotation Yrotation Xrotation
					JOINT RightToeBase
					{
						OFFSET -0.22981 -0.63138 2.03959
						CHANNELS 3 Zrotation Yrotation Xrotation
						End Site
						{
							OFFSET -0.00000 -0.00000 1.07060
						}
					}
				}
			}
		}
	}
	JOINT LowerBack
	{
		OFFSET 0 0 0
		CHANNELS 3 Zrotation Yrotation Xrotation
		JOINT Spine
		{
			OFFSET -0.02651 1.86275 -0.11152
			CHANNELS 3 Zrotation Yrotation Xrotation
			JOINT Spine1
			{
				OFFSET 0.01019 1.86224 0.04087
				CHANNELS 3 Zrotation Yrotation Xrotation
				JOINT Neck
				{
					OFFSET 0 0 0
					CHANNELS 3 Zrotation Yrotation Xrotation
					JOINT Neck1
					{
						OFFSET -0.01926 1.80512 0.08867
						CHANNELS 3 Zrotation Yrotation Xrotation
						JOINT Head
						{
							OFFSET 0.05516 1.76451 -0.38475
							CHANNELS 3 Zrotation Yrotation Xrotation
							End Site
							{
								OFFSET 0.01592 1.82587 -0.14001
							}
						}
					}
				}
				JOINT LeftShoulder
				{
					OFFSET 0 0 0
					CHANNELS 3 Zrotation Yrotation Xrotation
					JOINT LeftArm
					{
						OFFSET 3.47116 1.51376 0.14491
						CHANNELS 3 Zrotation Yrotation Xrotation
						JOINT LeftForeArm
						{
							OFFSET 4.78095 -0.00000 0.00000
							CHANNELS 3 Zrotation Yrotation Xrotation
							JOINT LeftHand
							{
								OFFSET 3.58615 -0.00000 -0.00000
								CHANNELS 3 Zrotation Yrotation Xrotation
								JOINT LeftFingerBase
								{
									OFFSET 0 0 0
									CHANNELS 3 Zrotation Yrotation Xrotation
									JOINT LeftHandIndex1
									{
										OFFSET 0.65981 -0.00000 0.00000
										CHANNELS 3 Zrotation Yrotation Xrotation
										End Site
										{
											OFFSET 0.53196 -0.00000 0.00000
										}
									}
								}
								JOINT LThumb
								{
									OFFSET 0 0 0
									CHANNELS 3 Zrotation Yrotation Xrotation
									End Site
									{
										OFFSET 0.54008 -0.00000 0.54008
									}
								}
							}
						}
					}
				}
				JOINT RightShoulder
				{
					OFFSET 0 0 0
					CHANNELS 3 Zrotation Yrotation Xrotation
					JOINT RightArm
					{
						OFFSET -3.31725 1.61216 0.35156
						CHANNELS 3 Zrotation Yrotation Xrotation
						JOINT RightForeArm
						{
							OFFSET -4.48913 -0.00000 0.00000
							CHANNELS 3 Zrotation Yrotation Xrotation
							JOINT RightHand
							{
								OFFSET -3.70510 -0.00000 0.00000
								CHANNELS 3 Zrotation Yrotation Xrotation
								JOINT RightFingerBase
								{
									OFFSET 0 0 0
									CHANNELS 3 Zrotation Yrotation Xrotation
									JOINT RightHandIndex1
									{
										OFFSET -0.44914 -0.00000 0.00000
										CHANNELS 3 Zrotation Yrotation Xrotation
										End Site
										{
											OFFSET -0.36211 -0.00000 0.00000
										}
									}
								}
								JOINT RThumb
								{
									OFFSET 0 0 0
									CHANNELS 3 Zrotation Yrotation Xrotation
									End Site
									{
										OFFSET -0.36763 -0.00000 0.36763
									}
								}
							}
						}
					}
				}
			}
		}
	}
}
MOTION
Frames: 10
Frame Time: .0083333
-0.7113 18.7031 5.7614 0 0 0 0 0 0 -21 0 0 0 0 0 0 0 0 0 0 0 0 0 0 21 0 0 0 0 0 0 0 0 0 0 0 0 0 0 0 0 0 0 0 0 0 0 -16 0 0 21 0 0 11 0 0 0 -8 0 0 0 0 0 0 0 0 0 0 0 0 0 0 0 0 0 0 0 0 8 0 0 0 0 0 0 0 0 0 0 0 0 0 0 0 0 0
-0.7113 18.7031 5.7614 -4.6927 -1.1535 1.9432 0.0000 0.0000 0.0000 -9.2092 -7.7629 -3.4934 1.4965 7.7275 21.8894 1.6353 4.3877 -26.0710 8.5221 -16.4902 -54.4222 0.0000 0.0000 0.0000 0.0000 0.0000 0.0000 0.0000 0.0000 0.0000 -0.0000 -0.0000 0.0000 -0.0000 -0.0000 0.0000 2.2044 0.3244 2.1974 1.1659 0.5648 -2.6437 -0.0656 0.2352 -3.9460 -0.5283 -0.6059 -11.0947 4.0161 -1.6950 22.6716 1.2700 -0.4198 8.9602 -0.0000 -0.0000 0.0000 -90.7276 12.1560 26.7521 20.3263 -31.0335 -5.6986 -0.0000 -0.0000 10.7195 3.8842 -23.9836 -1.5808 -7.1250 0.0000 -0.0000 -15.5957 6.6635 14.2317 -0.0000 -0.0000 0.0000 86.0882 -18.1918 34.4578 -24.8565 36.0570 -8.2053 0.0000 0.0000 16.1849 -10.1070 -29.6508 5.0395 7.1250 -0.0000 -0.0000 23.4968 -58.4372 -8.0052
-0.7111 18.7031 5.7610 -4.6867 -1.1578 1.9385 0.0000 0.0000 0.0000 -9.2074 -7.7008 -3.5102 1.4947 7.7231 21.8761 1.6322 4.3513 -26.0298 8.5292 -16.4950 -54.4472 0.0000 0.0000 0.0000 0.0000 0.0000 0.0000 0.0000 0.0000 0.0000 -0.0000 -0.0000 0.0000 -0.0000 -0.0000 0.0000 2.1938 0.3141 2.2064 1.1744 0.5512 -2.6440 -0.0501 0.2288 -3.9518 -0.5231 -0.6037 -11.0913 3.9845 -1.6849 22.6574 1.2593 -0.4183 8.9541 0.0000 -0.0000 0.0000 -90.7233 12.1579 26.8117 20.4103 -31.1335 -5.7420 -0.0000 -0.0000 10.9232 3.7544 -23.4849 -1.4979 -7.1250 0.0000 -0.0000 -15.6816 7.1535 14.1617 0.0000 -0.0000 0.0000 86.0666 -18.1946 34.4802 -24.8374 36.0373 -8.1941 0.0000 0.0000 16.2615 -10.1698 -29.6148 5.0658 7.1250 -0.0000 -0.0000 23.4055 -58.4183 -7.9610
-0.7113 18.7030 5.7610 -4.6779 -1.1426 1.9331 0.0000 0.0000 0.0000 -9.2255 -7.7660 -3.4807 1.4946 7.7228 21.8752 1.6355 4.3667 -26.0614 8.5177 -16.4871 -54.4066 0.0000 0.0000 0.0000 0.0000 0.0000 0.0000 0.0000 0.0000 0.0000 -0.0000 -0.0000 0.0000 -0.0000 -0.0000 0.0000 2.1695 0.2966 2.1953 1.1891 0.5267 -2.6308 -0.0199 0.2178 -3.9325 -0.5548 -0.6019 -11.0913 3.9786 -1.6731 22.6208 1.2636 -0.4165 8.9412 -0.0000 -0.0000 0.0000 -90.7576 12.1082 26.7364 20.3768 -31.0936 -5.7247 -0.0000 -0.0000 11.0383 3.7982 -23.4489 -1.5133 -7.1250 0.0000 -0.0000 -15.6557 7.1849 14.1263 -0.0000 -0.0000 0.0000 86.0379 -18.1712 34.5061 -24.8210 36.0205 -8.1844 0.0000 0.0000 16.2975 -10.2235 -29.5620 5.0848 7.1250 -0.0000 -0.0000 23.3107 -58.3819 -7.9058
-0.7111 18.7023 5.7612 -4.6863 -1.1443 1.9099 0.0000 0.0000 0.0000 -9.2227 -7.7873 -3.4387 1.4940 7.7214 21.8710 1.6346 4.3665 -26.0549 8.4858 -16.4652 -54.2943 0.0000 0.0000 0.0000 0.0000 0.0000 0.0000 0.0000 0.0000 0.0000 -0.0000 -0.0000 0.0000 -0.0000 -0.0000 0.0000 2.1882 0.2922 2.2044 1.1925 0.5216 -2.6147 -0.0267 0.2149 -3.9210 -0.5863 -0.6010 -11.0823 3.9976 -1.6682 22.5818 1.2756 -0.4155 8.9263 -0.0000 -0.0000 0.0000 -90.8032 12.0353 26.5945 20.3184 -31.0240 -5.6945 -0.0000 -0.0000 11.1700 3.8298 -23.5085 -1.5296 -7.1250 0.0000 -0.0000 -15.6356 7.1252 14.1256 -0.0000 -0.0000 0.0000 86.0254 -18.1654 34.5452 -24.8370 36.0370 -8.1938 0.0000 0.0000 16.2528 -10.2438 -29.5932 5.0999 7.1250 -0.0000 -0.0000 23.3138 -58.4149 -7.9257
-0.7105 18.7016 5.7608 -4.6885 -1.1730 1.8862 0.0000 0.0000 0.0000 -9.2242 -7.7514 -3.4125 1.4933 7.7197 21.8658 1.6343 4.3447 -26.0418 8.4633 -16.4496 -54.2147 0.0000 0.0000 0.0000 0.0000 0.0000 0.0000 0.0000 0.0000 0.0000 -0.0000 -0.0000 0.0000 -0.0000 -0.0000 0.0000 2.2307 0.3005 2.2645 1.1701 0.5359 -2.6234 -0.0746 0.2200 -3.9633 -0.5888 -0.6039 -11.0865 4.0313 -1.6801 22.5905 1.2863 -0.4177 8.9307 -0.0000 -0.0000 0.0000 -90.7645 12.0407 26.5918 20.3315 -31.0396 -5.7013 -0.0000 -0.0000 11.1385 3.8031 -23.6088 -1.5250 -7.1250 0.0000 -0.0000 -15.6502 7.0306 14.1698 -0.0000 -0.0000 0.0000 86.0543 -18.2126 34.5585 -24.8739 36.0748 -8.2155 0.0000 0.0000 16.1978 -10.2844 -29.5405 5.1122 7.1250 -0.0000 -0.0000 23.2325 -58.3756 -7.8738
-0.7106 18.7016 5.7604 -4.6620 -1.1987 1.8793 0.0000 0.0000 0.0000 -9.2561 -7.7257 -3.4076 1.4926 7.7177 21.8600 1.6385 4.3399 -26.0692 8.4850 -16.4647 -54.2915 0.0000 0.0000 0.0000 0.0000 0.0000 0.0000 0.0000 0.0000 0.0000 -0.0000 -0.0000 0.0000 -0.0000 -0.0000 0.0000 2.2471 0.3048 2.3172 1.1294 0.5430 -2.6462 -0.1265 0.2219 -4.0162 -0.5630 -0.6107 -11.0888 4.0405 -1.6984 22.6195 1.2833 -0.4227 8.9417 -0.0000 0.0000 0.0000 -90.6808 12.0730 26.6490 20.3570 -31.0701 -5.7145 -0.0000 -0.0000 11.0632 3.7918 -23.6078 -1.5204 -7.1250 0.0000 -0.0000 -15.6569 7.0324 14.1759 -0.0000 0.0000 0.0000 86.1213 -18.2631 34.5095 -24.8863 36.0876 -8.2228 0.0000 0.0000 16.2263 -10.2780 -29.3932 5.0858 7.1250 -0.0000 -0.0000 23.1283 -58.2400 -7.7596
-0.7107 18.7021 5.7602 -4.6538 -1.2144 1.8802 0.0000 0.0000 0.0000 -9.2680 -7.7258 -3.4018 1.4915 7.7151 21.8522 1.6416 4.3628 -26.1040 8.5121 -16.4833 -54.3870 0.0000 0.0000 0.0000 0.0000 0.0000 0.0000 0.0000 0.0000 0.0000 -0.0000 -0.0000 0.0000 -0.0000 -0.0000 0.0000 2.2752 0.2998 2.3433 1.0999 0.5378 -2.6655 -0.1725 0.2175 -4.0507 -0.5578 -0.6135 -11.0743 4.0476 -1.7055 22.6262 1.2841 -0.4250 8.9415 0.0000 -0.0000 0.0000 -90.6170 12.0618 26.6866 20.3330 -31.0415 -5.7021 -0.0000 -0.0000 10.9992 3.8245 -23.4624 -1.5246 -7.1250 0.0000 -0.0000 -15.6396 7.1700 14.1153 0.0000 -0.0000 0.0000 86.1744 -18.3278 34.4740 -24.9195 36.1216 -8.2424 0.0000 0.0000 16.2625 -10.2313 -29.4132 5.0655 7.1250 -0.0000 -0.0000 23.1908 -58.2480 -7.7866
-0.7099 18.7021 5.7597 -4.6739 -1.2228 1.8700 0.0000 0.0000 0.0000 -9.2643 -7.8078 -3.3429 1.4900 7.7114 21.8410 1.6463 4.4107 -26.1619 8.4951 -16.4716 -54.3269 0.0000 0.0000 0.0000 0.0000 0.0000 0.0000 0.0000 0.0000 0.0000 -0.0000 -0.0000 0.0000 -0.0000 -0.0000 0.0000 2.3297 0.2878 2.4035 1.0886 0.5264 -2.6969 -0.2144 0.2092 -4.1172 -0.5604 -0.6125 -11.0427 4.0445 -1.7029 22.6329 1.2839 -0.4247 8.9378 0.0000 0.0000 0.0000 -90.5786 12.0731 26.7219 20.3189 -31.0247 -5.6948 -0.0000 -0.0000 10.9248 3.7923 -23.3437 -1.5045 -7.1250 0.0000 -0.0000 -15.6610 7.2867 14.0993 0.0000 0.0000 0.0000 86.2002 -18.4339 34.4684 -24.9809 36.1845 -8.2786 0.0000 0.0000 16.2572 -10.1914 -29.6119 5.0763 7.1250 -0.0000 -0.0000 23.3814 -58.4203 -7.9534
-0.7090 18.7017 5.7587 -4.6852 -1.2471 1.8551 0.0000 0.0000 0.0000 -9.2829 -7.9438 -3.2528 1.4886 7.7079 21.8303 1.6544 4.4987 -26.2661 8.4654 -16.4511 -54.2221 0.0000 0.0000 0.0000 0.0000 0.0000 0.0000 0.0000 0.0000 0.0000 -0.0000 -0.0000 0.0000 -0.0000 -0.0000 0.0000 2.3589 0.2839 2.4687 1.0869 0.5253 -2.7255 -0.2328 0.2070 -4.1837 -0.5286 -0.6107 -11.0143 3.9942 -1.6957 22.6505 1.2623 -0.4241 8.9376 0.0000 -0.0000 0.0000 -90.5633 12.1145 26.7375 20.3272 -31.0345 -5.6991 -0.0000 -0.0000 10.9651 3.7280 -23.3899 -1.4817 -7.1250 0.0000 -0.0000 -15.6992 7.2469 14.1492 0.0000 -0.0000 0.0000 86.2022 -18.5013 34.4517 -25.0064 36.2105 -8.2937 0.0000 0.0000 16.2753 -10.1026 -29.7856 5.0580 7.1250 -0.0000 -0.0000 23.6045 -58.5587 -8.1143
